<?xml version="1.0" encoding="UTF-8"?>
<svg id="Layer_2" data-name="Layer 2" xmlns="http://www.w3.org/2000/svg" viewBox="0 0 701.43 618.57">
  <defs>
    <style>
      .cls-1 {
        fill: #609f3c;
      }

      .cls-2 {
        fill: #04394b;
      }
    </style>
  </defs>
  <g id="Layer_1-2" data-name="Layer 1">
    <g>
      <path class="cls-2" d="M348.32,445.68c-6.24,3.26-12.42,2.26-18.03-.81-30.73-16.8-59.49-36.78-85.21-60.7-46.09-42.87-80.9-100.62-84.8-164.54l-.03-138.23c0-6.62,3.1-12.88,9.33-15.33l36.35-14.29L327.4,2.78c7.67-3.1,14.89-3.93,22.65-.82l90.11,36.13,68.45,26.96c6.86,2.7,11.26,8.02,11.25,15.66l-.12,135.34c-.01,12.78-1.99,24.39-4.85,36.71-10.74,46.21-35.55,87.04-68.77,120.82-28.58,29.07-61.45,53.1-97.8,72.1ZM344.14,416.15c42.45-23.64,79.25-52.56,107.97-92.12,15.89-21.89,27.74-45.91,34.75-71.97,4-14.86,5.69-28.96,5.68-44.42l-.04-113.59c0-2.44-1.04-4.49-3.31-5.42l-142.72-58.52c-3.72-1.53-7.02-2.42-10.86-.85l-88.2,35.96-56.75,23.22c-1.71.7-3.39,2.79-3.39,4.91l.32,122.74c.05,18.11,4.67,35.1,10.69,51.96,9,25.22,22.69,47.79,39.65,68.46,27.59,33.64,60.49,58.08,98.08,79.53,2.41,1.38,5.63,1.49,8.12.1Z"/>
      <path class="cls-2" d="M23.68,535.22l-.07,38.34c0,2.2-1.67,3.65-3.73,3.6l-16.89-.06c-1.38,0-2.96-1.22-2.96-2.94L0,455.69c0-2.23,1.68-3.67,3.75-3.67l45.55-.05c6.47,0,12.38.8,18.39,2.82,14.51,4.86,24.1,17.27,25.71,32.51,1.28,12.14-1.38,23.95-9.19,33.42-7.51,8.8-18.22,14.15-29.97,14.25l-30.56.26ZM70.53,493.86c.53-11.01-7.2-20.19-17.95-20.32l-28.96-.35.05,40.82,27.73-.16c10.97-.06,19.2-8.59,19.14-19.98Z"/>
      <path class="cls-2" d="M484.1,613.09h-13.25c-2.18,0-4.22-1.36-4.22-3.84l.07-116.96c0-2.02,1.63-3.37,3.4-3.37l14.49-.03c4.21,0,3.29,4.33,3.86,9.27,5.66-6.61,13.51-9.53,22.21-10.15,18.09-1.29,33.9,8.85,40,26.03,7.24,20.4,2.34,45.2-16.4,57.85-13.69,9.24-34.43,8.68-46.05-4.14l-.07,41.64c0,2.12-1.67,3.72-4.02,3.72ZM530.73,544.08c3.27-7.89,2.8-16.72-.82-24.06s-10.84-11.44-18.29-11.92-15.48,2.51-19.81,9.47c-5.4,8.68-5.68,20.32-.85,29.35,4.2,7.85,12.63,11.51,21.05,10.85,7.89-.62,15.33-5.53,18.71-13.68Z"/>
      <path class="cls-2" d="M388.19,612.89l-14.43-.03c-2.22,0-3.43-1.28-3.43-3.57v-117.04c0-2.07,1.82-3.34,3.53-3.35l13.92-.07c4.73-.02,3.44,4.38,4.38,9.18,5.84-6.92,14.09-9.71,23-10.07,17.36-.72,32.66,8.75,38.8,25.14,4.92,13.15,4.83,27.93-.85,40.66-8.5,19.06-28.7,28.66-48.53,22.57-4.92-1.51-8.58-4.53-12.78-8.13l-.17,41.74c0,1.56-1.59,2.97-3.43,2.96ZM434,544.98c3.68-7.6,3.48-16.07.33-23.55s-10.03-12.12-16.94-13.1c-8.38-1.19-15.89,1.51-20.9,7.87-4.41,5.61-5.54,12.42-5.18,19.45.54,10.72,7.35,19.57,17.37,21.69,10.25,2.17,20.46-2.31,25.32-12.36Z"/>
      <path class="cls-2" d="M354.95,573.11c0,2.78-1.52,4.01-3.65,4.02l-14.09.04c-2.24,0-3.85-1.49-3.91-3.72-.06-1.92.4-3.47-.28-5.8-5.81,6.82-13.49,9.62-22.05,10.38-22.01,1.98-41.66-12.22-45.97-34.02-1.88-9.5-1.36-19.02,1.98-28.16,6.72-18.45,24.77-29.35,44.29-27.82,8.47.67,15.94,3.53,21.63,9.96.81-4.51-.29-9.07,3.76-9.09l14.63-.08c1.8,0,3.65,1.22,3.65,3.38l.03,80.9ZM325.53,552.56c11.17-9.32,10.7-30.52.22-39.24-9.59-7.98-24.83-7.57-33.49,1.97-8.76,9.66-8.76,25.44-.05,35.17,8.5,9.51,23.63,10.19,33.33,2.09Z"/>
      <path class="cls-2" d="M165.8,550.71c1.68-1.86,3.27-2.81,5.55-1.46l11.85,7.03c2.33,1.38.76,4.33-.61,5.87-6.08,6.85-13.29,11.87-22.28,14.19-9.22,2.37-18.75,2.55-28.01.64-20.09-4.13-33.41-20.83-34.08-41.1-.62-18.55,8.22-35.97,25.42-43.92,11.48-5.31,24.6-5.69,36.68-2.04,20.9,6.32,30.08,25.35,29.02,46.85-.1,1.95-1.8,3.26-3.79,3.26l-64.88.03c1.56,10.34,8.78,16.77,18.37,18.43,9.63,1.67,19.88-.17,26.77-7.79ZM166.75,524.26c-.75-7.67-5.28-12.9-11.66-15.79-14.3-5.36-31.13.1-33.94,15.9l45.59-.11Z"/>
      <path class="cls-2" d="M677.63,573.32c-12.1,6.19-26.34,6.46-38.86,1.34-26.14-10.69-33.5-44.55-18.74-67.29,15.57-23.99,51.84-25.64,70.16-5.88,7.66,8.26,10.83,18.7,11.21,29.98.59,17.44-8.05,33.82-23.77,41.86ZM676.22,548.38c6.6-9.55,6.47-22.55-.57-31.68-9.04-11.75-27.48-11.84-36.54-.12-7.13,9.22-7.1,22.26-.7,31.71,4.34,6.4,11.52,9.51,18.74,9.59s14.48-2.87,19.06-9.49Z"/>
      <path class="cls-2" d="M257.55,558.02l2.44,12.76c.38,1.98-.48,3.87-2.48,4.55-9.45,3.23-19.74,3.94-29.46,1.42-13.59-3.52-19.95-16.12-19.99-29.89l-.11-38.41-12.58-.05c-1.85,0-3.05-1.43-3.06-3.21l-.05-12.94c0-1.54,1.06-3.27,2.71-3.29l13.08-.22-.06-24.02c0-2.19,1.49-3.88,3.7-3.88h15.18c2.26.01,3.7,1.63,3.7,3.88l-.03,24.07,22.41.05c2.01,0,3.41,1.24,3.56,3.32l-.02,13.31c-.09,1.45-1.24,2.92-2.82,2.92l-23.17.06.26,38.11c.04,6.11,4.32,10.6,10.27,11.07,9.36.74,15.51-4.98,16.54.4Z"/>
      <path class="cls-2" d="M583.54,573.19c0,2.33-1.27,3.89-3.38,3.9l-14.72.06c-2.17,0-3.5-1.34-3.5-3.63v-80.63c0-2.31,1.43-3.97,3.66-3.98l13.86-.06c5.56-.02,3.31,5.6,4.55,11.41,6.97-13.65,28.19-15.32,28.25-10.12l.18,16.06c.06,5.79-7.11,1.73-16.04,4.96-9.07,3.28-12.8,13.28-12.81,23.13l-.04,38.92Z"/>
      <path class="cls-2" d="M381.46,353.75c-20.17-.17-33.25-9.1-62.19-2.55-18.67,4.22-36.85,4.28-51.63-8.62-25.39-22.15-25.22-60.45-4.29-87.34,5.76-7.39,10.79-14.29,15.24-22.61,11.94-22.28,34.76-35.6,60.03-36.1,26.31-.52,50.42,12.89,62.92,36.06,4.4,8.15,9.17,15,14.94,22.25,18.45,23.2,21.61,56.08,3.54,79.81-9.38,12.31-22.99,19.22-38.57,19.08ZM302.73,301.61l18.62,18.88c4.3,4.36,11.18,1.98,15.03-1.93l22.33-22.69,32.59-33.22c4.38-4.46,2.4-11.61-1.3-15.41-3.55-3.65-10.7-5.08-14.94-.86l-47.26,46.99-19.92-19.71c-4.49-4.44-11.78-3.12-15.68,1.01s-4.78,11.36-.47,15.74l11,11.21Z"/>
      <path class="cls-2" d="M406.61,161.15c-8.87,15.62-25.83,24.39-40.66,15.72-24.2-14.14-19.97-64.1,5.94-79.1,7.92-4.58,17.64-4.89,25.36.13,18.54,12.03,20.82,43.08,9.36,63.25Z"/>
      <path class="cls-2" d="M319.56,172.86c-9.78,9.71-24.47,9.49-35.04,1.01-19.79-15.88-23.81-48.85-9.33-68.8,7.98-11,21.87-14.16,33.51-7,23,14.14,29.24,56.54,10.86,74.79Z"/>
      <path class="cls-2" d="M249.7,232.06c-24.59.73-40.84-31.1-33.03-55.62,4.26-13.37,17.69-19.98,30.66-15.72,20.03,6.59,31.43,31.15,26.41,51.54-2.81,11.42-11.72,19.43-24.03,19.8Z"/>
      <path class="cls-2" d="M450.93,224.12c-8.65,7.99-20.54,10.41-31,5.48-19.62-9.24-19.56-43.68.77-61.91,5.6-5.02,12.28-8,19.77-8.24,9.05-.28,16.73,4.66,21.01,12.57,8.45,15.63,3.24,39.36-10.54,52.09Z"/>
      <path class="cls-1" d="M302.73,301.61l-11-11.21c-4.3-4.39-3.51-11.52.47-15.74s11.19-5.45,15.68-1.01l19.92,19.71,47.26-46.99c4.24-4.21,11.39-2.79,14.94.86,3.7,3.8,5.67,10.95,1.3,15.41l-32.59,33.22-22.33,22.69c-3.85,3.91-10.73,6.29-15.03,1.93l-18.62-18.88Z"/>
    </g>
    <g>
      <path class="cls-1" d="M506.2,611.23v.83c0,.66-.37,1.03-1.03,1.03h-1.08c-.66,0-1.05-.37-1.05-1.03v-15.62c0-.66.39-1.03,1.05-1.03h1.08c.66,0,1.03.37,1.03,1.03v6.09c1.05-1.51,2.57-2.13,4.21-2.13,3.59,0,6.06,2.86,6.06,6.48s-2.47,6.48-6.06,6.48c-1.64,0-3.15-.61-4.21-2.13ZM513.31,606.88c0-2.1-1.27-3.86-3.52-3.86s-3.62,1.64-3.64,3.86c.02,2.22,1.49,3.86,3.64,3.86s3.52-1.74,3.52-3.86Z"/>
      <path class="cls-1" d="M520.36,617.37l1.98-4.94-4.67-10.54c-.32-.71.02-1.22.81-1.22h1.32c.59,0,.98.27,1.17.83l2.98,7.55,2.86-7.55c.22-.56.61-.83,1.22-.83h1.3c.76,0,1.1.49.78,1.22l-6.84,15.89c-.24.56-.61.78-1.2.78h-.9c-.78,0-1.1-.49-.81-1.2Z"/>
      <path class="cls-1" d="M551.63,608.4c0,2.84-2.37,4.69-5.92,4.69h-6.21c-.66,0-1.03-.37-1.03-1.03v-15.06c0-.66.37-1.03,1.03-1.03h5.45c3.4,0,5.87,1.71,5.87,4.55,0,1.59-.88,3.13-2.98,3.74,2.52.32,3.79,2.2,3.79,4.13ZM541.7,598.57v4.79h2.35c2.54,0,3.54-1.25,3.54-2.52,0-1.47-1.25-2.27-2.79-2.27h-3.1ZM548.4,608.2c0-1.32-1.12-2.62-3.79-2.62h-2.91v4.87h3.94c1.66,0,2.76-.93,2.76-2.25Z"/>
      <path class="cls-1" d="M553.44,606.88c0-3.62,2.47-6.48,6.06-6.48,1.64,0,3.15.61,4.2,2.13v-.81c0-.66.37-1.05,1.03-1.05h1.08c.66,0,1.05.39,1.05,1.05v10.34c0,.66-.39,1.03-1.05,1.03h-1.08c-.66,0-1.03-.37-1.03-1.03v-.83c-1.05,1.52-2.57,2.13-4.2,2.13-3.59,0-6.06-2.86-6.06-6.48ZM563.76,606.88c-.02-2.22-1.47-3.86-3.64-3.86s-3.52,1.76-3.52,3.86,1.3,3.86,3.52,3.86,3.62-1.64,3.64-3.86Z"/>
      <path class="cls-1" d="M569.5,610.91c-.32-.66.02-1.12.68-1.29l.64-.15c.59-.15.88.12,1.3.59.44.54,1.2.88,2.05.88,1.08,0,1.83-.59,1.83-1.37,0-.66-.51-1-1.32-1.3l-1.59-.56c-1.59-.49-3.3-1.47-3.3-3.5,0-2.2,1.81-3.81,4.38-3.81,1.56,0,3.01.51,3.86,1.98.42.64.07,1.15-.61,1.32l-.56.15c-.59.15-.9-.07-1.3-.49-.37-.44-.86-.56-1.34-.56-.95,0-1.52.59-1.52,1.29,0,.66.59,1,1.27,1.22l1.66.59c2.47.78,3.25,2.22,3.28,3.64,0,2.49-2.2,3.81-4.74,3.81-2.08,0-3.84-.83-4.67-2.44Z"/>
      <path class="cls-1" d="M580.58,606.93c0-3.54,2.71-6.53,6.75-6.53,3.32,0,6.21,2,6.45,5.96.05.64-.37.98-1.03.98h-9.12c-.05,1.88,1.61,3.42,4.18,3.42,1.03,0,2.05-.27,3.06-.9.54-.32,1.03-.27,1.44.2l.22.27c.44.49.42,1.1-.2,1.56-1.42,1.1-3.1,1.47-4.67,1.47-4.4,0-7.09-2.88-7.09-6.43ZM590.75,605.37c-.49-1.96-2.05-2.44-3.37-2.44s-3.01.56-3.59,2.44h6.97Z"/>
      <path class="cls-1" d="M596.33,611.94c-.56-.37-.56-.93-.15-1.44l.34-.46c.39-.49.88-.51,1.44-.22,1.12.56,2.62.86,3.62.86,2.52,0,3.91-1.49,3.91-3.4,0-1.64-1.3-3.08-3.54-3.08-1,0-2.1.29-3.03.81-.51.29-.91.39-1.42.17l-.56-.24c-.56-.25-.78-.61-.76-1.22l.42-6.72c.05-.68.42-1,1.08-1h8.68c.66,0,1.03.37,1.03,1.03v.54c0,.66-.37,1.03-1.03,1.03h-6.92l-.32,4.35c.86-.78,2.2-1.2,3.64-1.2,3.59,0,5.84,2.57,5.84,5.55,0,3.59-2.52,6.09-6.97,6.09-2.08,0-3.94-.54-5.3-1.42Z"/>
      <path class="cls-1" d="M610.65,604.53c0-4.89,2.84-8.85,7.5-8.85s7.53,3.96,7.53,8.85-2.88,8.82-7.53,8.82-7.5-3.96-7.5-8.82ZM622.58,604.53c0-3.45-1.69-6.18-4.42-6.18s-4.38,2.74-4.38,6.18,1.64,6.16,4.38,6.16,4.42-2.74,4.42-6.16Z"/>
      <path class="cls-1" d="M641.44,604.19c0,5.04-2.54,9.17-7.6,9.17-1.71,0-3.23-.46-4.42-1.32-.54-.39-.51-.95-.05-1.47l.42-.39c.44-.44.86-.44,1.44-.12.63.39,1.56.61,2.47.61,2.76,0,4.64-2.15,4.64-5.72-1.12,1.64-2.93,2.27-4.55,2.27-3.2,0-6.01-2.2-6.01-5.7s2.59-5.82,6.48-5.82c4.55,0,7.19,3.4,7.19,8.48ZM630.92,601.53c0,1.91,1.59,3.18,3.5,3.18,2,0,3.67-1.34,3.67-3.18s-1.64-3.15-3.67-3.15-3.5,1.27-3.5,3.15Z"/>
      <path class="cls-1" d="M650.85,612.06v-15.06c0-.66.37-1.03,1.03-1.03h1.17c.66,0,1.03.37,1.03,1.03v15.06c0,.66-.37,1.03-1.03,1.03h-1.17c-.66,0-1.03-.37-1.03-1.03Z"/>
      <path class="cls-1" d="M657.82,612.06v-10.34c0-.66.37-1.05,1.03-1.05h1.08c.66,0,1.05.39,1.05,1.05v1.15c.56-1.56,2.03-2.47,3.94-2.47,3.03,0,4.64,2.2,4.64,5.6v6.06c0,.66-.39,1.03-1.05,1.03h-1.08c-.66,0-1.03-.37-1.03-1.03v-5.92c0-2.13-.93-3.1-2.22-3.1s-3.2.95-3.2,3.98v5.04c0,.66-.39,1.03-1.05,1.03h-1.08c-.66,0-1.03-.37-1.03-1.03Z"/>
      <path class="cls-1" d="M671.9,606.98c0-3.62,2.64-6.58,7.09-6.58,1.08,0,2.44.24,3.81,1.05.59.34.66.9.24,1.44l-.29.37c-.39.54-.83.56-1.44.27-.93-.46-1.86-.49-2.15-.49-2.37,0-4.11,1.59-4.11,3.84s1.74,3.86,4.11,3.86c.29,0,1.22-.05,2.15-.49.61-.29,1.08-.27,1.44.25l.29.39c.39.54.27,1.17-.54,1.59-1.25.68-2.52.88-3.52.88-4.35,0-7.09-2.83-7.09-6.38Z"/>
      <path class="cls-1" d="M685.43,611.38c0-1.12.9-2,2.1-2s2.1.88,2.1,2-.93,1.98-2.1,1.98-2.1-.86-2.1-1.98Z"/>
    </g>
  </g>
</svg>