<?xml version="1.0" encoding="UTF-8"?>
<svg id="Layer_2" data-name="Layer 2" xmlns="http://www.w3.org/2000/svg" viewBox="0 0 695.43 425.66">
  <defs>
    <style>
      .cls-1 {
        fill: #609f3c;
      }

      .cls-2 {
        fill: #04394b;
      }
    </style>
  </defs>
  <g id="Layer_1-2" data-name="Layer 1">
    <g>
      <path class="cls-2" d="M23.68,301.04l-.07,38.34c0,2.2-1.67,3.65-3.73,3.6l-16.89-.06c-1.38,0-2.96-1.22-2.96-2.94L0,221.51c0-2.23,1.68-3.67,3.75-3.67l45.55-.05c6.47,0,12.38.8,18.39,2.82,14.51,4.86,24.1,17.27,25.71,32.51,1.28,12.14-1.38,23.95-9.19,33.42-7.51,8.8-18.22,14.15-29.97,14.25l-30.56.26ZM70.53,259.68c.53-11.01-7.2-20.19-17.95-20.32l-28.96-.35.05,40.82,27.73-.16c10.97-.06,19.2-8.59,19.14-19.98Z"/>
      <path class="cls-2" d="M478.1,378.91h-13.25c-2.18,0-4.22-1.36-4.22-3.84l.07-116.96c0-2.02,1.63-3.37,3.4-3.37l14.49-.03c4.21,0,3.29,4.33,3.86,9.27,5.66-6.61,13.51-9.53,22.21-10.15,18.09-1.29,33.9,8.85,40,26.03,7.24,20.4,2.34,45.2-16.4,57.85-13.69,9.24-34.43,8.68-46.05-4.14l-.07,41.64c0,2.12-1.67,3.72-4.02,3.72ZM524.73,309.9c3.27-7.89,2.8-16.72-.82-24.06-3.62-7.36-10.84-11.44-18.29-11.92-7.8-.5-15.48,2.51-19.81,9.47-5.4,8.68-5.68,20.32-.85,29.35,4.2,7.85,12.63,11.51,21.05,10.85,7.89-.62,15.33-5.53,18.71-13.68Z"/>
      <path class="cls-2" d="M382.19,378.72l-14.43-.03c-2.22,0-3.43-1.28-3.43-3.57v-117.04c0-2.07,1.82-3.34,3.53-3.35l13.92-.07c4.73-.02,3.44,4.38,4.38,9.18,5.84-6.92,14.09-9.71,23-10.07,17.36-.72,32.66,8.75,38.8,25.14,4.92,13.15,4.83,27.93-.85,40.66-8.5,19.06-28.7,28.66-48.53,22.57-4.92-1.51-8.58-4.53-12.78-8.13l-.17,41.74c0,1.56-1.59,2.97-3.43,2.96ZM428,310.8c3.68-7.6,3.48-16.07.33-23.55-3.11-7.39-10.03-12.12-16.94-13.1-8.38-1.19-15.89,1.51-20.9,7.87-4.41,5.61-5.54,12.42-5.18,19.45.54,10.72,7.35,19.57,17.37,21.69,10.25,2.17,20.46-2.31,25.32-12.36Z"/>
      <path class="cls-2" d="M351.95,338.93c0,2.78-1.52,4.01-3.65,4.02l-14.09.04c-2.24,0-3.85-1.49-3.91-3.72-.06-1.92.4-3.47-.28-5.8-5.81,6.82-13.49,9.62-22.05,10.38-22.01,1.98-41.66-12.22-45.97-34.02-1.88-9.5-1.36-19.02,1.98-28.16,6.72-18.45,24.77-29.35,44.29-27.82,8.47.67,15.94,3.53,21.63,9.96.81-4.51-.29-9.07,3.76-9.09l14.63-.08c1.8,0,3.65,1.22,3.65,3.38l.03,80.9ZM322.53,318.38c11.17-9.32,10.7-30.52.22-39.24-9.59-7.98-24.83-7.57-33.49,1.97-8.76,9.66-8.76,25.44-.05,35.17s23.63,10.19,33.33,2.09Z"/>
      <path class="cls-2" d="M162.8,316.53c1.68-1.86,3.27-2.81,5.55-1.46l11.85,7.03c2.33,1.38.76,4.33-.61,5.87-6.08,6.85-13.29,11.87-22.28,14.19-9.22,2.37-18.75,2.55-28.01.64-20.09-4.13-33.41-20.83-34.08-41.1-.62-18.55,8.22-35.97,25.42-43.92,11.48-5.31,24.6-5.69,36.68-2.04,20.9,6.32,30.08,25.35,29.02,46.85-.1,1.95-1.8,3.26-3.79,3.26l-64.88.03c1.56,10.34,8.78,16.77,18.37,18.43,9.63,1.67,19.88-.17,26.77-7.79ZM163.75,290.08c-.75-7.67-5.28-12.9-11.66-15.79-14.3-5.36-31.13.1-33.94,15.9l45.59-.11Z"/>
      <path class="cls-2" d="M671.63,339.14c-12.1,6.19-26.34,6.46-38.86,1.34-26.14-10.69-33.5-44.55-18.74-67.29,15.57-23.99,51.84-25.64,70.16-5.88,7.66,8.26,10.83,18.7,11.21,29.98.59,17.44-8.05,33.82-23.77,41.86ZM670.22,314.2c6.6-9.55,6.47-22.55-.57-31.68-9.04-11.75-27.48-11.84-36.54-.12-7.13,9.22-7.1,22.26-.7,31.71,4.34,6.4,11.52,9.51,18.74,9.59s14.48-2.87,19.06-9.49Z"/>
      <path class="cls-2" d="M254.55,323.84l2.44,12.76c.38,1.98-.48,3.87-2.48,4.55-9.45,3.23-19.74,3.94-29.46,1.42-13.59-3.52-19.95-16.12-19.99-29.89l-.11-38.41-12.58-.05c-1.85,0-3.05-1.43-3.06-3.21l-.05-12.94c0-1.54,1.06-3.27,2.71-3.29l13.08-.22-.06-24.02c0-2.19,1.49-3.88,3.7-3.88h15.18c2.26.01,3.7,1.63,3.7,3.88l-.03,24.07,22.41.05c2.01,0,3.41,1.24,3.56,3.32l-.02,13.31c-.09,1.45-1.24,2.92-2.82,2.92l-23.17.06.26,38.11c.04,6.11,4.32,10.6,10.27,11.07,9.36.74,15.51-4.98,16.54.4Z"/>
      <path class="cls-2" d="M577.54,339.01c0,2.33-1.27,3.89-3.38,3.9l-14.72.06c-2.17,0-3.5-1.34-3.5-3.63v-80.63c0-2.31,1.43-3.97,3.66-3.98l13.86-.06c5.56-.02,3.31,5.6,4.55,11.41,6.97-13.65,28.19-15.32,28.25-10.12l.18,16.06c.06,5.79-7.11,1.73-16.04,4.96-9.07,3.28-12.8,13.28-12.81,23.13l-.04,38.92Z"/>
    </g>
    <g>
      <path class="cls-1" d="M412.15,414.54v1.26c0,1-.56,1.56-1.56,1.56h-1.63c-1,0-1.59-.56-1.59-1.56v-23.69c0-1,.59-1.56,1.59-1.56h1.63c1,0,1.56.56,1.56,1.56v9.23c1.59-2.3,3.89-3.22,6.38-3.22,5.45,0,9.19,4.34,9.19,9.82s-3.75,9.82-9.19,9.82c-2.48,0-4.78-.93-6.38-3.22ZM422.94,407.94c0-3.19-1.93-5.86-5.34-5.86s-5.49,2.48-5.52,5.86c.04,3.37,2.26,5.86,5.52,5.86s5.34-2.63,5.34-5.86Z"/>
      <path class="cls-1" d="M433.62,423.84l3-7.49-7.08-15.98c-.48-1.08.04-1.85,1.22-1.85h2c.89,0,1.48.41,1.78,1.26l4.52,11.46,4.34-11.46c.33-.85.93-1.26,1.85-1.26h1.96c1.15,0,1.67.74,1.19,1.85l-10.38,24.1c-.37.85-.93,1.19-1.82,1.19h-1.37c-1.19,0-1.67-.74-1.22-1.82Z"/>
      <path class="cls-1" d="M481.03,410.24c0,4.3-3.6,7.12-8.97,7.12h-9.42c-1,0-1.56-.56-1.56-1.56v-22.84c0-1,.56-1.56,1.56-1.56h8.27c5.15,0,8.9,2.6,8.9,6.9,0,2.41-1.33,4.75-4.52,5.67,3.82.48,5.75,3.34,5.75,6.27ZM465.98,395.33v7.27h3.56c3.86,0,5.38-1.89,5.38-3.82,0-2.22-1.89-3.45-4.23-3.45h-4.71ZM476.14,409.94c0-2-1.71-3.97-5.75-3.97h-4.41v7.38h5.97c2.52,0,4.19-1.41,4.19-3.41Z"/>
      <path class="cls-1" d="M483.77,407.94c0-5.49,3.75-9.82,9.19-9.82,2.48,0,4.78.93,6.38,3.22v-1.22c0-1,.56-1.59,1.56-1.59h1.63c1,0,1.59.59,1.59,1.59v15.68c0,1-.59,1.56-1.59,1.56h-1.63c-1,0-1.56-.56-1.56-1.56v-1.26c-1.59,2.3-3.89,3.22-6.38,3.22-5.45,0-9.19-4.34-9.19-9.82ZM499.41,407.94c-.04-3.37-2.22-5.86-5.52-5.86s-5.34,2.67-5.34,5.86,1.96,5.86,5.34,5.86,5.49-2.48,5.52-5.86Z"/>
      <path class="cls-1" d="M508.12,414.05c-.48-1,.04-1.71,1.04-1.97l.96-.22c.89-.22,1.33.19,1.97.89.67.82,1.82,1.33,3.11,1.33,1.63,0,2.78-.89,2.78-2.08,0-1-.78-1.52-2-1.97l-2.41-.85c-2.41-.74-5-2.22-5-5.3,0-3.34,2.74-5.78,6.64-5.78,2.37,0,4.56.78,5.86,3,.63.96.11,1.74-.93,2l-.85.22c-.89.22-1.37-.11-1.96-.74-.56-.67-1.3-.85-2.04-.85-1.45,0-2.3.89-2.3,1.96,0,1,.89,1.52,1.93,1.85l2.52.89c3.75,1.19,4.93,3.37,4.97,5.52,0,3.78-3.34,5.78-7.19,5.78-3.15,0-5.82-1.26-7.08-3.71Z"/>
      <path class="cls-1" d="M524.92,408.01c0-5.38,4.11-9.9,10.23-9.9,5.04,0,9.42,3.04,9.79,9.05.07.96-.56,1.48-1.56,1.48h-13.83c-.07,2.86,2.45,5.19,6.34,5.19,1.56,0,3.11-.41,4.63-1.37.82-.48,1.56-.41,2.19.3l.33.41c.67.74.63,1.67-.3,2.37-2.15,1.67-4.71,2.22-7.08,2.22-6.67,0-10.75-4.37-10.75-9.75ZM540.34,405.64c-.74-2.97-3.11-3.71-5.12-3.71s-4.56.85-5.45,3.71h10.57Z"/>
      <path class="cls-1" d="M548.79,415.61c-.85-.56-.85-1.41-.22-2.19l.52-.7c.59-.74,1.33-.78,2.19-.33,1.7.85,3.97,1.3,5.49,1.3,3.82,0,5.93-2.26,5.93-5.15,0-2.48-1.97-4.67-5.38-4.67-1.52,0-3.19.44-4.6,1.22-.78.44-1.37.59-2.15.26l-.85-.37c-.85-.37-1.19-.93-1.15-1.85l.63-10.19c.07-1.04.63-1.52,1.63-1.52h13.16c1,0,1.56.56,1.56,1.56v.81c0,1-.56,1.56-1.56,1.56h-10.49l-.48,6.6c1.3-1.19,3.34-1.82,5.52-1.82,5.45,0,8.86,3.89,8.86,8.42,0,5.45-3.82,9.23-10.57,9.23-3.15,0-5.97-.81-8.04-2.15Z"/>
      <path class="cls-1" d="M570.51,404.38c0-7.42,4.3-13.42,11.38-13.42s11.42,6.01,11.42,13.42-4.38,13.38-11.42,13.38-11.38-6-11.38-13.38ZM588.6,404.38c0-5.23-2.56-9.38-6.71-9.38s-6.64,4.15-6.64,9.38,2.48,9.34,6.64,9.34,6.71-4.15,6.71-9.34Z"/>
      <path class="cls-1" d="M617.18,403.86c0,7.64-3.86,13.9-11.53,13.9-2.59,0-4.89-.7-6.71-2-.82-.59-.78-1.44-.07-2.22l.63-.59c.67-.67,1.3-.67,2.19-.19.97.59,2.37.93,3.75.93,4.19,0,7.04-3.26,7.04-8.68-1.71,2.48-4.45,3.45-6.9,3.45-4.86,0-9.12-3.34-9.12-8.64s3.93-8.82,9.82-8.82c6.9,0,10.9,5.15,10.9,12.86ZM601.24,399.82c0,2.89,2.41,4.82,5.3,4.82,3.04,0,5.56-2.04,5.56-4.82s-2.48-4.78-5.56-4.78-5.3,1.93-5.3,4.78Z"/>
      <path class="cls-1" d="M631.45,415.8v-22.84c0-1,.56-1.56,1.56-1.56h1.78c1,0,1.56.56,1.56,1.56v20.28h10.23c1,0,1.59.59,1.59,1.59v.96c0,1-.59,1.56-1.59,1.56h-13.57c-1,0-1.56-.56-1.56-1.56Z"/>
      <path class="cls-1" d="M651.99,415.8v-22.84c0-1,.56-1.56,1.56-1.56h1.78c1,0,1.56.56,1.56,1.56v20.28h10.23c1,0,1.59.59,1.59,1.59v.96c0,1-.59,1.56-1.59,1.56h-13.57c-1,0-1.56-.56-1.56-1.56Z"/>
      <path class="cls-1" d="M669.71,404.38c0-7.23,5.34-13.38,14.12-13.38,3.3,0,5.71.89,7.79,2.26.82.59.93,1.33.37,2.19l-.59.85c-.56.85-1.26.93-2.19.41-1.56-.89-3.52-1.41-5.38-1.41-5.75,0-9.16,4.15-9.16,9.08s3.41,9.08,9.16,9.08c1.85,0,3.82-.52,5.38-1.41.93-.52,1.63-.44,2.19.41l.59.85c.56.85.52,1.52-.19,2.04-2.11,1.44-4.56,2.41-7.97,2.41-8.79,0-14.12-6.15-14.12-13.38Z"/>
    </g>
    <g>
      <path class="cls-2" d="M348.8,217.47c-3.09,1.59-6.15,1.1-8.92-.39-15.21-8.2-29.45-17.95-42.18-29.62-22.81-20.92-40.04-49.1-41.98-80.29V39.72c-.02-3.23,1.52-6.28,4.61-7.48l17.99-6.97L338.45,1.36c3.8-1.51,7.37-1.92,11.21-.4l44.61,17.63,33.88,13.15c3.4,1.32,5.57,3.91,5.57,7.64l-.06,66.04c0,6.24-.98,11.9-2.4,17.91-5.31,22.55-17.6,42.47-34.04,58.95-14.15,14.18-30.42,25.91-48.41,35.18ZM346.74,203.06c21.01-11.53,39.23-25.65,53.45-44.95,7.87-10.68,13.73-22.4,17.2-35.12,1.98-7.25,2.81-14.13,2.81-21.67l-.02-55.43c0-1.19-.52-2.19-1.64-2.64l-70.65-28.55c-1.84-.74-3.48-1.18-5.38-.42l-43.66,17.55-28.09,11.33c-.84.34-1.68,1.36-1.68,2.39l.16,59.89c.02,8.84,2.31,17.13,5.29,25.36,4.46,12.31,11.23,23.32,19.62,33.41,13.66,16.42,29.94,28.34,48.55,38.8,1.19.67,2.79.73,4.02.05Z"/>
      <path class="cls-2" d="M365.21,172.61c-9.98-.08-16.46-4.44-30.78-1.25-9.24,2.06-18.24,2.09-25.55-4.2-12.57-10.81-12.49-29.5-2.12-42.62,2.85-3.61,5.34-6.97,7.55-11.03,5.91-10.87,17.21-17.37,29.71-17.61,13.02-.25,24.96,6.29,31.15,17.6,2.18,3.97,4.54,7.32,7.39,10.86,9.13,11.32,10.7,27.36,1.75,38.95-4.64,6.01-11.38,9.38-19.09,9.31ZM326.24,147.17l9.22,9.21c2.13,2.13,5.53.97,7.44-.94l11.05-11.07,16.13-16.21c2.17-2.18,1.19-5.67-.64-7.52-1.76-1.78-5.3-2.48-7.39-.42l-23.39,22.93-9.86-9.62c-2.22-2.17-5.83-1.52-7.76.49s-2.36,5.54-.23,7.68l5.44,5.47Z"/>
      <path class="cls-2" d="M377.66,78.63c-4.39,7.62-12.78,11.9-20.13,7.67-11.98-6.9-9.89-31.28,2.94-38.6,3.92-2.24,8.73-2.38,12.55.06,9.18,5.87,10.3,21.02,4.63,30.86Z"/>
      <path class="cls-2" d="M334.57,84.35c-4.84,4.74-12.11,4.63-17.34.49-9.79-7.75-11.78-23.84-4.62-33.57,3.95-5.37,10.83-6.91,16.59-3.42,11.38,6.9,14.47,27.59,5.37,36.49Z"/>
      <path class="cls-2" d="M299.99,113.23c-12.17.36-20.21-15.17-16.35-27.14,2.11-6.53,8.76-9.75,15.17-7.67,9.92,3.22,15.56,15.2,13.07,25.15-1.39,5.57-5.8,9.48-11.89,9.66Z"/>
      <path class="cls-2" d="M399.6,109.36c-4.28,3.9-10.17,5.08-15.35,2.68-9.71-4.51-9.68-21.31.38-30.21,2.77-2.45,6.08-3.91,9.78-4.02,4.48-.14,8.28,2.27,10.4,6.14,4.18,7.63,1.6,19.2-5.22,25.42Z"/>
      <path class="cls-1" d="M326.24,147.17l-5.44-5.47c-2.13-2.14-1.74-5.62.23-7.68s5.54-2.66,7.76-.49l9.86,9.62,23.39-22.93c2.1-2.06,5.64-1.36,7.39.42,1.83,1.86,2.81,5.34.64,7.52l-16.13,16.21-11.05,11.07c-1.91,1.91-5.31,3.07-7.44.94l-9.22-9.21Z"/>
    </g>
  </g>
</svg>