<?xml version="1.0" encoding="UTF-8"?>
<svg id="Layer_2" data-name="Layer 2" xmlns="http://www.w3.org/2000/svg" viewBox="0 0 180 218">
  <defs>
    <style>
      .cls-1 {
        fill: #609f3c;
      }

      .cls-2 {
        fill: #04394b;
      }
    </style>
  </defs>
  <g id="Layer_1-2" data-name="Layer 1">
    <g>
      <path class="cls-2" d="M94.14,217.02c-3.12,1.59-6.22,1.1-9.02-.39-15.38-8.18-29.78-17.91-42.65-29.56C19.39,166.2,1.97,138.07.01,106.95V39.64c-.02-3.22,1.53-6.27,4.66-7.47l18.19-6.96L83.66,1.35c3.84-1.51,7.46-1.91,11.34-.4l45.11,17.59,34.26,13.13c3.44,1.32,5.64,3.9,5.63,7.63l-.06,65.9c0,6.22-1,11.87-2.43,17.88-5.37,22.5-17.8,42.38-34.42,58.83-14.3,14.16-30.76,25.85-48.95,35.11ZM92.04,202.64c21.25-11.51,39.67-25.59,54.05-44.86,7.96-10.66,13.88-22.36,17.4-35.04,2-7.24,2.85-14.1,2.84-21.63l-.02-55.31c0-1.19-.52-2.19-1.65-2.64L93.21,14.67c-1.86-.74-3.52-1.18-5.44-.42l-44.15,17.51-28.4,11.31c-.85.34-1.7,1.36-1.69,2.39l.16,59.76c.02,8.82,2.34,17.09,5.35,25.3,4.51,12.28,11.36,23.27,19.84,33.34,13.81,16.38,30.28,28.28,49.1,38.72,1.21.67,2.82.72,4.06.05Z"/>
      <path class="cls-2" d="M110.72,172.25c-10.1-.08-16.64-4.43-31.13-1.24-9.34,2.06-18.44,2.08-25.84-4.2-12.71-10.78-12.63-29.44-2.15-42.53,2.88-3.6,5.4-6.96,7.63-11.01,5.98-10.85,17.4-17.33,30.05-17.58,13.17-.25,25.24,6.28,31.5,17.56,2.2,3.97,4.59,7.3,7.48,10.84,9.24,11.3,10.82,27.31,1.77,38.86-4.69,6-11.51,9.36-19.3,9.29ZM71.31,146.87l9.32,9.19c2.15,2.12,5.6.97,7.52-.94l11.18-11.05,16.31-16.18c2.19-2.17,1.2-5.65-.65-7.51s-5.36-2.47-7.48-.42l-23.65,22.88-9.97-9.6c-2.25-2.16-5.9-1.52-7.85.49s-2.39,5.53-.24,7.67l5.51,5.46Z"/>
      <path class="cls-2" d="M123.32,78.47c-4.44,7.61-12.93,11.88-20.35,7.66-12.11-6.88-10-31.21,2.97-38.52,3.96-2.23,8.83-2.38,12.7.06,9.28,5.86,10.42,20.98,4.69,30.8Z"/>
      <path class="cls-2" d="M79.74,84.17c-4.9,4.73-12.25,4.62-17.54.49-9.9-7.73-11.92-23.79-4.67-33.5,3.99-5.35,10.95-6.9,16.78-3.41,11.51,6.88,14.64,27.53,5.43,36.42Z"/>
      <path class="cls-2" d="M44.77,113c-12.31.36-20.44-15.14-16.54-27.08,2.13-6.51,8.86-9.73,15.35-7.65,10.03,3.21,15.73,15.17,13.22,25.09-1.41,5.56-5.86,9.46-12.03,9.64Z"/>
      <path class="cls-2" d="M145.5,109.13c-4.33,3.89-10.28,5.07-15.52,2.67-9.82-4.5-9.79-21.27.39-30.15,2.8-2.44,6.15-3.9,9.89-4.01,4.53-.14,8.37,2.27,10.52,6.12,4.23,7.61,1.62,19.16-5.28,25.36Z"/>
      <path class="cls-1" d="M71.31,146.87l-5.51-5.46c-2.15-2.14-1.76-5.61.24-7.67s5.6-2.65,7.85-.49l9.97,9.6,23.65-22.88c2.12-2.05,5.7-1.36,7.48.42s2.84,5.33.65,7.51l-16.31,16.18-11.18,11.05c-1.93,1.91-5.37,3.06-7.52.94l-9.32-9.19Z"/>
    </g>
  </g>
</svg>