<?xml version="1.0" encoding="UTF-8"?>
<svg id="Layer_2" data-name="Layer 2" xmlns="http://www.w3.org/2000/svg" viewBox="0 0 906.71 251.19">
  <defs>
    <style>
      .cls-1 {
        fill: #609f3c;
      }

      .cls-2 {
        fill: #04394b;
      }
    </style>
  </defs>
  <g id="Layer_1-2" data-name="Layer 1">
    <g>
      <path class="cls-2" d="M234.41,118.29l-.07,38.55c0,2.21-1.67,3.67-3.73,3.61l-16.91-.06c-1.38,0-2.97-1.23-2.97-2.96l-.02-119.11c0-2.24,1.68-3.69,3.75-3.69l45.59-.05c6.48,0,12.39.81,18.41,2.83,14.52,4.88,24.12,17.37,25.74,32.69,1.28,12.21-1.38,24.08-9.2,33.6-7.51,8.85-18.24,14.23-30,14.33l-30.58.26ZM281.3,76.71c.53-11.07-7.2-20.3-17.97-20.43l-28.99-.35.05,41.04,27.75-.16c10.98-.06,19.21-8.64,19.15-20.09Z"/>
      <path class="cls-2" d="M689.21,196.58h-13.26c-2.18,0-4.23-1.37-4.23-3.86l.07-117.6c0-2.03,1.63-3.39,3.4-3.39l14.5-.03c4.21,0,3.3,4.36,3.86,9.32,5.67-6.65,13.52-9.58,22.23-10.21,18.11-1.3,33.93,8.9,40.03,26.17,7.24,20.52,2.35,45.44-16.41,58.16-13.7,9.29-34.46,8.73-46.09-4.17l-.07,41.87c0,2.13-1.67,3.74-4.02,3.74ZM735.88,127.19c3.27-7.93,2.8-16.81-.82-24.2-3.62-7.4-10.85-11.51-18.31-11.99s-15.49,2.52-19.82,9.52c-5.4,8.73-5.68,20.43-.85,29.51,4.2,7.89,12.64,11.58,21.07,10.91,7.9-.63,15.35-5.56,18.73-13.75Z"/>
      <path class="cls-2" d="M593.22,196.38l-14.44-.03c-2.22,0-3.43-1.28-3.43-3.59v-117.68c0-2.08,1.82-3.36,3.53-3.37l13.93-.07c4.73-.02,3.44,4.4,4.39,9.23,5.84-6.96,14.1-9.76,23.01-10.13,17.37-.72,32.69,8.8,38.83,25.27,4.93,13.22,4.83,28.08-.86,40.89-8.51,19.17-28.72,28.82-48.57,22.7-4.92-1.52-8.58-4.55-12.79-8.17l-.17,41.96c0,1.57-1.59,2.98-3.44,2.98ZM639.07,128.1c3.68-7.64,3.48-16.16.33-23.68-3.11-7.43-10.04-12.18-16.96-13.17-8.38-1.2-15.91,1.51-20.91,7.91-4.41,5.64-5.54,12.49-5.19,19.56.54,10.78,7.36,19.68,17.38,21.81,10.26,2.18,20.48-2.32,25.34-12.43Z"/>
      <path class="cls-2" d="M562.96,156.39c0,2.79-1.52,4.03-3.65,4.04l-14.1.04c-2.24,0-3.85-1.5-3.92-3.74-.06-1.93.4-3.49-.28-5.83-5.81,6.86-13.5,9.67-22.07,10.44-22.02,1.99-41.7-12.29-46.01-34.2-1.88-9.56-1.36-19.12,1.98-28.32,6.72-18.55,24.79-29.51,44.32-27.97,8.47.67,15.95,3.55,21.65,10.01.82-4.54-.29-9.12,3.76-9.14l14.64-.08c1.8,0,3.65,1.23,3.65,3.4l.03,81.34ZM533.51,135.72c11.18-9.37,10.7-30.68.22-39.45-9.6-8.03-24.85-7.61-33.52,1.98-8.77,9.71-8.76,25.58-.05,35.36s23.65,10.24,33.35,2.1Z"/>
      <path class="cls-2" d="M373.65,133.86c1.68-1.87,3.27-2.83,5.55-1.47l11.86,7.07c2.33,1.39.76,4.36-.61,5.91-6.08,6.89-13.3,11.94-22.3,14.27-9.22,2.39-18.77,2.56-28.03.65-20.11-4.16-33.44-20.94-34.11-41.32-.62-18.65,8.22-36.16,25.44-44.16,11.49-5.34,24.62-5.72,36.71-2.05,20.92,6.36,30.1,25.49,29.04,47.1-.1,1.97-1.8,3.28-3.8,3.28l-64.93.03c1.56,10.4,8.79,16.86,18.38,18.53,9.63,1.68,19.9-.17,26.79-7.83ZM374.6,107.27c-.75-7.71-5.29-12.97-11.67-15.87-14.31-5.38-31.15.1-33.96,15.99l45.63-.11Z"/>
      <path class="cls-2" d="M882.9,156.59c-12.11,6.22-26.36,6.5-38.9,1.35-26.17-10.75-33.53-44.79-18.75-67.66,15.58-24.13,51.88-25.78,70.22-5.92,7.67,8.31,10.84,18.8,11.22,30.14.59,17.54-8.05,34-23.79,42.08ZM881.49,131.52c6.6-9.6,6.47-22.67-.57-31.85-9.05-11.81-27.5-11.9-36.57-.12-7.14,9.27-7.1,22.38-.7,31.88,4.34,6.43,11.53,9.56,18.75,9.64s14.49-2.88,19.08-9.54Z"/>
      <path class="cls-2" d="M465.48,141.21l2.44,12.83c.38,1.99-.48,3.89-2.49,4.58-9.45,3.24-19.76,3.96-29.48,1.43-13.6-3.54-19.97-16.21-20.01-30.06l-.11-38.62-12.59-.05c-1.85,0-3.06-1.44-3.06-3.22l-.05-13.01c0-1.55,1.06-3.28,2.71-3.31l13.09-.22-.06-24.16c0-2.2,1.49-3.9,3.7-3.9h15.19c2.26.01,3.71,1.64,3.7,3.9l-.03,24.2,22.43.05c2.01,0,3.41,1.25,3.56,3.34l-.02,13.38c-.09,1.46-1.24,2.93-2.82,2.94l-23.19.06.26,38.32c.04,6.15,4.33,10.66,10.28,11.13,9.36.75,15.52-5,16.55.4Z"/>
      <path class="cls-2" d="M788.73,156.46c0,2.35-1.27,3.91-3.38,3.92l-14.73.06c-2.17,0-3.5-1.35-3.5-3.65v-81.06c0-2.32,1.43-3.99,3.66-4l13.87-.06c5.57-.02,3.31,5.63,4.55,11.47,6.98-13.72,28.21-15.4,28.27-10.18l.18,16.14c.06,5.82-7.12,1.74-16.05,4.98-9.08,3.3-12.81,13.35-12.82,23.25l-.04,39.13Z"/>
    </g>
    <g>
      <path class="cls-1" d="M580.85,238.39v1.45c0,1.15-.64,1.79-1.79,1.79h-1.88c-1.15,0-1.84-.64-1.84-1.79v-27.27c0-1.15.68-1.79,1.84-1.79h1.88c1.15,0,1.79.64,1.79,1.79v10.62c1.84-2.65,4.48-3.71,7.34-3.71,6.27,0,10.58,4.99,10.58,11.31s-4.31,11.31-10.58,11.31c-2.86,0-5.5-1.07-7.34-3.71ZM593.27,230.79c0-3.67-2.22-6.74-6.14-6.74s-6.32,2.86-6.36,6.74c.04,3.88,2.6,6.74,6.36,6.74s6.14-3.03,6.14-6.74Z"/>
      <path class="cls-1" d="M605.55,249.1l3.46-8.62-8.15-18.39c-.56-1.24.04-2.13,1.41-2.13h2.3c1.02,0,1.71.47,2.05,1.45l5.2,13.19,4.99-13.19c.38-.98,1.07-1.45,2.13-1.45h2.26c1.32,0,1.92.85,1.37,2.13l-11.95,27.74c-.43.98-1.07,1.37-2.09,1.37h-1.58c-1.36,0-1.92-.85-1.41-2.09Z"/>
      <path class="cls-1" d="M660.12,233.44c0,4.95-4.14,8.19-10.33,8.19h-10.84c-1.15,0-1.79-.64-1.79-1.79v-26.28c0-1.15.64-1.79,1.79-1.79h9.52c5.93,0,10.24,2.99,10.24,7.94,0,2.77-1.54,5.46-5.2,6.53,4.39.56,6.61,3.84,6.61,7.21ZM642.8,216.29v8.36h4.1c4.44,0,6.19-2.18,6.19-4.4,0-2.56-2.18-3.97-4.86-3.97h-5.42ZM654.49,233.1c0-2.3-1.96-4.56-6.61-4.56h-5.08v8.49h6.87c2.9,0,4.82-1.62,4.82-3.93Z"/>
      <path class="cls-1" d="M663.28,230.79c0-6.31,4.31-11.31,10.58-11.31,2.86,0,5.5,1.07,7.34,3.71v-1.41c0-1.15.64-1.84,1.79-1.84h1.88c1.15,0,1.84.68,1.84,1.84v18.05c0,1.15-.68,1.79-1.84,1.79h-1.88c-1.15,0-1.79-.64-1.79-1.79v-1.45c-1.84,2.65-4.48,3.71-7.34,3.71-6.27,0-10.58-4.99-10.58-11.31ZM681.28,230.79c-.04-3.88-2.56-6.74-6.36-6.74s-6.14,3.07-6.14,6.74,2.26,6.74,6.14,6.74,6.32-2.86,6.36-6.74Z"/>
      <path class="cls-1" d="M691.31,237.83c-.55-1.15.04-1.96,1.19-2.26l1.11-.26c1.02-.26,1.54.21,2.26,1.02.77.94,2.09,1.54,3.58,1.54,1.88,0,3.2-1.02,3.2-2.39,0-1.15-.9-1.75-2.3-2.26l-2.77-.98c-2.77-.85-5.76-2.56-5.76-6.1,0-3.84,3.16-6.66,7.64-6.66,2.73,0,5.25.9,6.74,3.46.73,1.11.13,2.01-1.07,2.3l-.98.26c-1.02.26-1.58-.13-2.26-.85-.64-.77-1.49-.98-2.35-.98-1.66,0-2.65,1.02-2.65,2.26,0,1.15,1.02,1.75,2.22,2.13l2.9,1.02c4.31,1.37,5.68,3.88,5.72,6.36,0,4.35-3.84,6.66-8.28,6.66-3.63,0-6.7-1.45-8.15-4.27Z"/>
      <path class="cls-1" d="M710.64,230.88c0-6.19,4.74-11.39,11.78-11.39,5.8,0,10.84,3.5,11.27,10.41.09,1.11-.64,1.71-1.79,1.71h-15.92c-.09,3.29,2.82,5.97,7.3,5.97,1.79,0,3.58-.47,5.33-1.58.94-.56,1.79-.47,2.52.34l.38.47c.77.85.73,1.92-.34,2.73-2.48,1.92-5.42,2.56-8.15,2.56-7.68,0-12.37-5.03-12.37-11.22ZM728.39,228.15c-.85-3.41-3.58-4.27-5.89-4.27s-5.25.98-6.27,4.27h12.16Z"/>
      <path class="cls-1" d="M738.11,239.63c-.98-.64-.98-1.62-.26-2.52l.6-.81c.68-.85,1.54-.9,2.52-.38,1.96.98,4.56,1.49,6.31,1.49,4.4,0,6.83-2.6,6.83-5.93,0-2.86-2.26-5.37-6.19-5.37-1.75,0-3.67.51-5.29,1.41-.9.51-1.58.68-2.47.3l-.98-.43c-.98-.43-1.36-1.07-1.32-2.13l.73-11.73c.09-1.19.73-1.75,1.88-1.75h15.15c1.15,0,1.79.64,1.79,1.79v.94c0,1.15-.64,1.79-1.79,1.79h-12.08l-.55,7.6c1.49-1.37,3.84-2.09,6.36-2.09,6.27,0,10.2,4.48,10.2,9.69,0,6.27-4.4,10.62-12.16,10.62-3.63,0-6.87-.94-9.26-2.47Z"/>
      <path class="cls-1" d="M763.11,226.7c0-8.53,4.95-15.45,13.1-15.45s13.14,6.91,13.14,15.45-5.04,15.4-13.14,15.4-13.1-6.91-13.1-15.4ZM783.94,226.7c0-6.02-2.94-10.8-7.72-10.8s-7.64,4.78-7.64,10.8,2.86,10.75,7.64,10.75,7.72-4.78,7.72-10.75Z"/>
      <path class="cls-1" d="M816.83,226.1c0,8.79-4.44,16-13.27,16-2.99,0-5.63-.81-7.72-2.3-.94-.68-.9-1.66-.09-2.56l.72-.68c.77-.77,1.49-.77,2.52-.21,1.11.68,2.73,1.07,4.31,1.07,4.82,0,8.11-3.76,8.11-9.99-1.96,2.86-5.12,3.97-7.94,3.97-5.59,0-10.5-3.84-10.5-9.94s4.52-10.16,11.31-10.16c7.94,0,12.54,5.93,12.54,14.81ZM798.48,221.45c0,3.33,2.77,5.55,6.1,5.55,3.5,0,6.4-2.35,6.4-5.55s-2.86-5.51-6.4-5.51-6.1,2.22-6.1,5.51Z"/>
      <path class="cls-1" d="M833.25,239.84v-26.28c0-1.15.64-1.79,1.79-1.79h2.05c1.15,0,1.79.64,1.79,1.79v23.34h11.78c1.15,0,1.84.68,1.84,1.84v1.11c0,1.15-.68,1.79-1.84,1.79h-15.62c-1.15,0-1.79-.64-1.79-1.79Z"/>
      <path class="cls-1" d="M856.89,239.84v-26.28c0-1.15.64-1.79,1.79-1.79h2.05c1.15,0,1.79.64,1.79,1.79v23.34h11.78c1.15,0,1.84.68,1.84,1.84v1.11c0,1.15-.68,1.79-1.84,1.79h-15.62c-1.15,0-1.79-.64-1.79-1.79Z"/>
      <path class="cls-1" d="M877.28,226.7c0-8.32,6.14-15.4,16.26-15.4,3.8,0,6.57,1.02,8.96,2.6.94.68,1.07,1.54.43,2.52l-.68.98c-.64.98-1.45,1.07-2.52.47-1.79-1.02-4.05-1.62-6.19-1.62-6.61,0-10.54,4.78-10.54,10.45s3.93,10.45,10.54,10.45c2.13,0,4.4-.6,6.19-1.62,1.07-.6,1.88-.51,2.52.47l.68.98c.64.98.6,1.75-.21,2.35-2.43,1.66-5.25,2.77-9.18,2.77-10.11,0-16.26-7.08-16.26-15.4Z"/>
    </g>
    <g>
      <path class="cls-2" d="M94.14,217.02c-3.12,1.59-6.22,1.1-9.02-.39-15.38-8.18-29.78-17.91-42.65-29.56C19.39,166.2,1.97,138.07.01,106.95V39.64c-.02-3.22,1.53-6.27,4.66-7.47l18.19-6.96L83.66,1.35c3.84-1.51,7.46-1.91,11.34-.4l45.11,17.59,34.26,13.13c3.44,1.32,5.64,3.9,5.63,7.63l-.06,65.9c0,6.22-1,11.87-2.43,17.88-5.37,22.5-17.8,42.38-34.42,58.83-14.3,14.16-30.76,25.85-48.95,35.11ZM92.04,202.64c21.25-11.51,39.67-25.59,54.05-44.86,7.96-10.66,13.88-22.36,17.4-35.04,2-7.24,2.85-14.1,2.84-21.63l-.02-55.31c0-1.19-.52-2.19-1.65-2.64L93.21,14.67c-1.86-.74-3.52-1.18-5.44-.42l-44.15,17.51-28.4,11.31c-.85.34-1.7,1.36-1.69,2.39l.16,59.76c.02,8.82,2.34,17.09,5.35,25.3,4.51,12.28,11.36,23.27,19.84,33.34,13.81,16.38,30.28,28.28,49.1,38.72,1.21.67,2.82.72,4.06.05Z"/>
      <path class="cls-2" d="M110.72,172.25c-10.1-.08-16.64-4.43-31.13-1.24-9.34,2.06-18.44,2.08-25.84-4.2-12.71-10.78-12.63-29.44-2.15-42.53,2.88-3.6,5.4-6.96,7.63-11.01,5.98-10.85,17.4-17.33,30.05-17.58,13.17-.25,25.24,6.28,31.5,17.56,2.2,3.97,4.59,7.3,7.48,10.84,9.24,11.3,10.82,27.31,1.77,38.86-4.69,6-11.51,9.36-19.3,9.29ZM71.31,146.87l9.32,9.19c2.15,2.12,5.6.97,7.52-.94l11.18-11.05,16.31-16.18c2.19-2.17,1.2-5.65-.65-7.51s-5.36-2.47-7.48-.42l-23.65,22.88-9.97-9.6c-2.25-2.16-5.9-1.52-7.85.49s-2.39,5.53-.24,7.67l5.51,5.46Z"/>
      <path class="cls-2" d="M123.32,78.47c-4.44,7.61-12.93,11.88-20.35,7.66-12.11-6.88-10-31.21,2.97-38.52,3.96-2.23,8.83-2.38,12.7.06,9.28,5.86,10.42,20.98,4.69,30.8Z"/>
      <path class="cls-2" d="M79.74,84.17c-4.9,4.73-12.25,4.62-17.54.49-9.9-7.73-11.92-23.79-4.67-33.5,3.99-5.35,10.95-6.9,16.78-3.41,11.51,6.88,14.64,27.53,5.43,36.42Z"/>
      <path class="cls-2" d="M44.77,113c-12.31.36-20.44-15.14-16.54-27.08,2.13-6.51,8.86-9.73,15.35-7.65,10.03,3.21,15.73,15.17,13.22,25.09-1.41,5.56-5.86,9.46-12.03,9.64Z"/>
      <path class="cls-2" d="M145.5,109.13c-4.33,3.89-10.28,5.07-15.52,2.67-9.82-4.5-9.79-21.27.39-30.15,2.8-2.44,6.15-3.9,9.89-4.01,4.53-.14,8.37,2.27,10.52,6.12,4.23,7.61,1.62,19.16-5.28,25.36Z"/>
      <path class="cls-1" d="M71.31,146.87l-5.51-5.46c-2.15-2.14-1.76-5.61.24-7.67s5.6-2.65,7.85-.49l9.97,9.6,23.65-22.88c2.12-2.05,5.7-1.36,7.48.42s2.84,5.33.65,7.51l-16.31,16.18-11.18,11.05c-1.93,1.91-5.37,3.06-7.52.94l-9.32-9.19Z"/>
    </g>
  </g>
</svg>