<?xml version="1.0" encoding="UTF-8"?>
<svg id="Layer_2" data-name="Layer 2" xmlns="http://www.w3.org/2000/svg" viewBox="0 0 696 162">
  <defs>
    <style>
      .cls-1 {
        fill: #04394b;
      }
    </style>
  </defs>
  <g id="Layer_1-2" data-name="Layer 1">
    <g>
      <path class="cls-1" d="M23.7,83.71l-.07,38.55c0,2.21-1.67,3.67-3.73,3.61l-16.91-.06c-1.38,0-2.97-1.23-2.97-2.96L0,3.75C0,1.5,1.68.06,3.75.05L49.34,0c6.48,0,12.39.81,18.41,2.83,14.52,4.88,24.12,17.37,25.74,32.69,1.28,12.21-1.38,24.08-9.2,33.6-7.51,8.85-18.24,14.23-30,14.33l-30.58.26ZM70.59,42.13c.53-11.07-7.2-20.3-17.97-20.43l-28.99-.35.05,41.04,27.75-.16c10.98-.06,19.21-8.64,19.15-20.09Z"/>
      <path class="cls-1" d="M478.49,162h-13.26c-2.18,0-4.23-1.37-4.23-3.86l.07-117.6c0-2.03,1.63-3.39,3.4-3.39l14.5-.03c4.21,0,3.3,4.36,3.86,9.32,5.67-6.65,13.52-9.58,22.23-10.21,18.11-1.3,33.93,8.9,40.03,26.17,7.24,20.52,2.35,45.44-16.41,58.16-13.7,9.29-34.46,8.73-46.09-4.17l-.07,41.87c0,2.13-1.67,3.74-4.02,3.74ZM525.16,92.61c3.27-7.93,2.8-16.81-.82-24.2-3.62-7.4-10.85-11.51-18.31-11.99s-15.49,2.52-19.82,9.52c-5.4,8.73-5.68,20.43-.85,29.51,4.2,7.89,12.64,11.58,21.07,10.91,7.9-.63,15.35-5.56,18.73-13.75Z"/>
      <path class="cls-1" d="M382.5,161.8l-14.44-.03c-2.22,0-3.43-1.28-3.43-3.59V40.51c0-2.08,1.82-3.36,3.53-3.37l13.93-.07c4.73-.02,3.44,4.4,4.39,9.23,5.84-6.96,14.1-9.76,23.01-10.13,17.37-.72,32.69,8.8,38.83,25.27,4.93,13.22,4.83,28.08-.86,40.89-8.51,19.17-28.72,28.82-48.57,22.7-4.92-1.52-8.58-4.55-12.79-8.17l-.17,41.96c0,1.57-1.59,2.98-3.44,2.98ZM428.35,93.52c3.68-7.64,3.48-16.16.33-23.68-3.11-7.43-10.04-12.18-16.96-13.17-8.38-1.2-15.91,1.51-20.91,7.91-4.41,5.64-5.54,12.49-5.19,19.56.54,10.78,7.36,19.68,17.38,21.81,10.26,2.18,20.48-2.32,25.34-12.43Z"/>
      <path class="cls-1" d="M352.24,121.81c0,2.79-1.52,4.03-3.65,4.04l-14.1.04c-2.24,0-3.85-1.5-3.92-3.74-.06-1.93.4-3.49-.28-5.83-5.81,6.86-13.5,9.67-22.07,10.44-22.02,1.99-41.7-12.29-46.01-34.2-1.88-9.56-1.36-19.12,1.98-28.32,6.72-18.55,24.79-29.51,44.32-27.97,8.47.67,15.95,3.55,21.65,10.01.82-4.54-.29-9.12,3.76-9.14l14.64-.08c1.8,0,3.65,1.23,3.65,3.4l.03,81.34ZM322.79,101.14c11.18-9.37,10.7-30.68.22-39.45-9.6-8.03-24.85-7.61-33.52,1.98-8.77,9.71-8.76,25.58-.05,35.36s23.65,10.24,33.35,2.1Z"/>
      <path class="cls-1" d="M162.93,99.28c1.68-1.87,3.27-2.83,5.55-1.47l11.86,7.07c2.33,1.39.76,4.36-.61,5.91-6.08,6.89-13.3,11.94-22.3,14.27-9.22,2.39-18.77,2.56-28.03.65-20.11-4.16-33.44-20.94-34.11-41.32-.62-18.65,8.22-36.16,25.44-44.16,11.49-5.34,24.62-5.72,36.71-2.05,20.92,6.36,30.1,25.49,29.04,47.1-.1,1.97-1.8,3.28-3.8,3.28l-64.93.03c1.56,10.4,8.79,16.86,18.38,18.53,9.63,1.68,19.9-.17,26.79-7.83ZM163.88,72.69c-.75-7.71-5.29-12.97-11.67-15.87-14.31-5.38-31.15.1-33.96,15.99l45.63-.11Z"/>
      <path class="cls-1" d="M672.18,122.01c-12.11,6.22-26.36,6.5-38.9,1.35-26.17-10.75-33.53-44.79-18.75-67.66,15.58-24.13,51.88-25.78,70.22-5.92,7.67,8.31,10.84,18.8,11.22,30.14.59,17.54-8.05,34-23.79,42.08ZM670.77,96.94c6.6-9.6,6.47-22.67-.57-31.85-9.05-11.81-27.5-11.9-36.57-.12-7.14,9.27-7.1,22.38-.7,31.88,4.34,6.43,11.53,9.56,18.75,9.64s14.49-2.88,19.08-9.54Z"/>
      <path class="cls-1" d="M254.76,106.63l2.44,12.83c.38,1.99-.48,3.89-2.49,4.58-9.45,3.24-19.76,3.96-29.48,1.43-13.6-3.54-19.97-16.21-20.01-30.06l-.11-38.62-12.59-.05c-1.85,0-3.06-1.44-3.06-3.22l-.05-13.01c0-1.55,1.06-3.28,2.71-3.31l13.09-.22-.06-24.16c0-2.2,1.49-3.9,3.7-3.9h15.19c2.26.01,3.71,1.64,3.7,3.9l-.03,24.2,22.43.05c2.01,0,3.41,1.25,3.56,3.34l-.02,13.38c-.09,1.46-1.24,2.93-2.82,2.94l-23.19.06.26,38.32c.04,6.15,4.33,10.66,10.28,11.13,9.36.75,15.52-5,16.55.4Z"/>
      <path class="cls-1" d="M578.02,121.88c0,2.35-1.27,3.91-3.38,3.92l-14.73.06c-2.17,0-3.5-1.35-3.5-3.65V41.14c0-2.32,1.43-3.99,3.66-4l13.87-.06c5.57-.02,3.31,5.63,4.55,11.47,6.98-13.72,28.21-15.4,28.27-10.18l.18,16.14c.06,5.82-7.12,1.74-16.05,4.98-9.08,3.3-12.81,13.35-12.82,23.25l-.04,39.13Z"/>
    </g>
  </g>
</svg>