<svg xmlns="http://www.w3.org/2000/svg" viewBox="0 0 1280 260" role="img" aria-label="Four dog size silhouettes">
  <g fill="#000000">
    <g transform="translate(25,92) scale(.72)">

    <path d="M55 104
             C48 94 48 80 54 70
             C60 60 70 54 82 53
             C87 43 97 37 109 37
             C120 37 130 42 136 51
             C150 50 165 52 179 57
             C191 61 199 69 201 79
             C203 88 199 96 191 101
             C187 104 181 106 174 107
             L171 137 L159 137 L158 108
             C145 110 132 111 118 109
             L114 137 L102 137 L103 107
             C91 106 79 103 69 98
             L67 137 L55 137 L56 104 Z"/>
    <path d="M82 53
             C73 47 67 39 68 30
             C79 33 88 40 93 49
             C89 50 85 51 82 53 Z"/>
    <path d="M188 67
             C202 55 215 58 217 69
             C219 80 211 88 201 87
             C207 81 206 72 199 68
             C196 66 192 66 188 67 Z"/>
    <path d="M198 77
             C208 72 217 75 220 82
             C215 82 211 84 208 88
             C203 86 200 82 198 77 Z"/>

  </g>
    <g transform="translate(315,58) scale(.88)">

    <path d="M43 102
             C39 90 42 76 51 67
             C59 59 69 55 82 56
             C89 46 101 40 115 40
             C130 40 143 46 152 56
             C170 54 188 55 205 60
             C218 64 227 72 230 82
             C233 91 229 99 221 105
             C216 108 210 110 202 111
             L198 143 L186 143 L187 112
             C171 115 155 116 139 115
             L135 143 L123 143 L124 113
             C108 112 92 109 77 104
             L73 143 L61 143 L62 101
             C54 104 47 104 43 102 Z"/>
    <path d="M82 56
             C74 43 74 30 80 19
             L94 49
             C90 51 86 53 82 56 Z"/>
    <path d="M104 42
             C101 29 104 17 113 10
             L120 40
             C114 39 109 40 104 42 Z"/>
    <path d="M230 82
             C245 67 260 61 272 66
             C259 70 247 79 237 92
             C234 89 232 86 230 82 Z"/>

  </g>
    <g transform="translate(625,26) scale(1.02)">

    <path d="M33 101
             C30 88 34 74 44 65
             C53 57 65 53 79 55
             C88 45 102 39 118 39
             C135 39 149 45 159 56
             C181 53 203 55 224 61
             C238 65 248 74 251 85
             C254 95 250 104 241 110
             C236 113 229 116 220 117
             L216 148 L203 148 L204 117
             C186 121 168 122 149 120
             L145 148 L132 148 L133 118
             C115 117 97 114 80 108
             L76 148 L63 148 L64 105
             C54 107 43 106 33 101 Z"/>
    <path d="M79 55
             C69 49 62 40 63 30
             C75 31 86 38 93 48
             C88 50 83 52 79 55 Z"/>
    <path d="M246 76
             C259 62 275 58 290 65
             C276 70 265 81 255 95
             C251 91 248 85 246 76 Z"/>
    <path d="M251 88
             C267 92 281 101 292 114
             C279 110 266 106 253 103 Z"/>

  </g>
    <g transform="translate(940,4) scale(1.13)">

    <path d="M26 99
             C22 84 26 69 38 59
             C48 50 61 46 77 48
             C87 37 101 32 118 32
             C135 32 150 38 160 50
             C185 47 210 50 234 57
             C249 62 259 71 262 84
             C265 96 260 106 250 113
             C243 117 235 120 225 121
             L221 153 L207 153 L208 120
             C189 124 169 125 149 123
             L144 153 L130 153 L132 121
             C112 120 93 116 75 109
             L70 153 L56 153 L58 105
             C46 108 35 106 26 99 Z"/>
    <path d="M77 48
             C70 39 68 29 72 20
             C82 24 91 32 96 42
             C89 43 83 45 77 48 Z"/>
    <path d="M106 34
             C104 24 108 15 117 9
             L123 32
             C117 31 111 32 106 34 Z"/>
    <path d="M262 84
             C275 75 286 74 295 79
             C286 84 277 92 267 103
             C265 97 263 91 262 84 Z"/>

  </g>
  </g>
</svg>