<svg xmlns="http://www.w3.org/2000/svg" viewBox="0 0 320 180" role="img" aria-label="Large dog silhouette - Golden Retriever">
  <g fill="#000000">

    <path d="M33 101
             C30 88 34 74 44 65
             C53 57 65 53 79 55
             C88 45 102 39 118 39
             C135 39 149 45 159 56
             C181 53 203 55 224 61
             C238 65 248 74 251 85
             C254 95 250 104 241 110
             C236 113 229 116 220 117
             L216 148 L203 148 L204 117
             C186 121 168 122 149 120
             L145 148 L132 148 L133 118
             C115 117 97 114 80 108
             L76 148 L63 148 L64 105
             C54 107 43 106 33 101 Z"/>
    <path d="M79 55
             C69 49 62 40 63 30
             C75 31 86 38 93 48
             C88 50 83 52 79 55 Z"/>
    <path d="M246 76
             C259 62 275 58 290 65
             C276 70 265 81 255 95
             C251 91 248 85 246 76 Z"/>
    <path d="M251 88
             C267 92 281 101 292 114
             C279 110 266 106 253 103 Z"/>

  </g>
</svg>