<svg xmlns="http://www.w3.org/2000/svg" viewBox="0 0 320 180" role="img" aria-label="Medium dog silhouette - Border Collie type">
  <g fill="#000000">

    <path d="M43 102
             C39 90 42 76 51 67
             C59 59 69 55 82 56
             C89 46 101 40 115 40
             C130 40 143 46 152 56
             C170 54 188 55 205 60
             C218 64 227 72 230 82
             C233 91 229 99 221 105
             C216 108 210 110 202 111
             L198 143 L186 143 L187 112
             C171 115 155 116 139 115
             L135 143 L123 143 L124 113
             C108 112 92 109 77 104
             L73 143 L61 143 L62 101
             C54 104 47 104 43 102 Z"/>
    <path d="M82 56
             C74 43 74 30 80 19
             L94 49
             C90 51 86 53 82 56 Z"/>
    <path d="M104 42
             C101 29 104 17 113 10
             L120 40
             C114 39 109 40 104 42 Z"/>
    <path d="M230 82
             C245 67 260 61 272 66
             C259 70 247 79 237 92
             C234 89 232 86 230 82 Z"/>

  </g>
</svg>