<svg xmlns="http://www.w3.org/2000/svg" viewBox="0 0 320 180" role="img" aria-label="Small dog silhouette - Pug">
  <g fill="#000000">

    <path d="M55 104
             C48 94 48 80 54 70
             C60 60 70 54 82 53
             C87 43 97 37 109 37
             C120 37 130 42 136 51
             C150 50 165 52 179 57
             C191 61 199 69 201 79
             C203 88 199 96 191 101
             C187 104 181 106 174 107
             L171 137 L159 137 L158 108
             C145 110 132 111 118 109
             L114 137 L102 137 L103 107
             C91 106 79 103 69 98
             L67 137 L55 137 L56 104 Z"/>
    <path d="M82 53
             C73 47 67 39 68 30
             C79 33 88 40 93 49
             C89 50 85 51 82 53 Z"/>
    <path d="M188 67
             C202 55 215 58 217 69
             C219 80 211 88 201 87
             C207 81 206 72 199 68
             C196 66 192 66 188 67 Z"/>
    <path d="M198 77
             C208 72 217 75 220 82
             C215 82 211 84 208 88
             C203 86 200 82 198 77 Z"/>

  </g>
</svg>