<svg xmlns="http://www.w3.org/2000/svg" viewBox="0 0 320 180" role="img" aria-label="Extra large dog silhouette - Mastiff">
  <g fill="#000000">

    <path d="M26 99
             C22 84 26 69 38 59
             C48 50 61 46 77 48
             C87 37 101 32 118 32
             C135 32 150 38 160 50
             C185 47 210 50 234 57
             C249 62 259 71 262 84
             C265 96 260 106 250 113
             C243 117 235 120 225 121
             L221 153 L207 153 L208 120
             C189 124 169 125 149 123
             L144 153 L130 153 L132 121
             C112 120 93 116 75 109
             L70 153 L56 153 L58 105
             C46 108 35 106 26 99 Z"/>
    <path d="M77 48
             C70 39 68 29 72 20
             C82 24 91 32 96 42
             C89 43 83 45 77 48 Z"/>
    <path d="M106 34
             C104 24 108 15 117 9
             L123 32
             C117 31 111 32 106 34 Z"/>
    <path d="M262 84
             C275 75 286 74 295 79
             C286 84 277 92 267 103
             C265 97 263 91 262 84 Z"/>

  </g>
</svg>